{"title":"Pan(2015)MPEG-4(720p)[DaScubaDude]","uid":13273829,"size":1112799839,"categoryP":"video","categoryS":"movies","magnet":"?xt=urn:btih:b10b987cb8e2a002e3d783c29db753af016ad002&amp;dn=Pan%282015%29MPEG-4%28720p%29%5BDaScubaDude%5D&amp;tr=udp%3A%2F%2Ftracker.leechers-paradise.org%3A6969&amp;tr=udp%3A%2F%2Fzer0day.ch%3A1337&amp;tr=udp%3A%2F%2Fopen.demonii.com%3A1337&amp;tr=udp%3A%2F%2Ftracker.coppersurfer.tk%3A6969&amp;tr=udp%3A%2F%2Fexodus.desync.com%3A6969","seeders":0,"leechers":0,"uploader":"dascuba","files":1,"time":1453421321,"description":"Pan (2015)\r\nPG  |  111 min  |  Adventure, Family, Fantasy  |  9 October 2015 (USA)\r\n5.9 Your rating:   -/10   Ratings: 5.9/10 from 25,535 users   Metascore: 36/100 \r\nReviews: 144 user | 242 critic | 35 from Metacritic.com\r\n12-year-old orphan Peter is spirited away to the magical world of Neverland, where he finds both fun and danger, and ultimately discovers his destiny -- to become the hero who will be forever known as Peter Pan.\r\n\r\nDirector: Joe Wright\r\nWriters: Jason Fuchs, J.M. Barrie (characters)\r\nStars: Levi Miller, Hugh Jackman, Garrett Hedlund\r\n\r\nGeneral\r\nComplete name                            :PanPAN_Title1.mp4\r\nFormat                                   : MPEG-4\r\nFormat profile                           : Base Media\r\nCodec ID                                 : isom\r\nFile size                                : 1.04 GiB\r\nDuration                                 : 1h 51mn\r\nOverall bit rate                         : 1 331 Kbps\r\nMovie name                               : PAN\r\nWriting application                      : Lavf54.6.100\r\n\r\nVideo\r\nID                                       : 1\r\nFormat                                   : AVC\r\nFormat/Info                              : Advanced Video Codec\r\nFormat profile                           :   \r\nFormat settings, CABAC                   : No\r\nFormat settings, ReFrames                : 6 frames\r\nCodec ID                                 : avc1\r\nCodec ID/Info                            : Advanced Video Coding\r\nDuration                                 : 1h 51mn\r\nBit rate                                 : 1 197 Kbps\r\nWidth                                    : 720 pixels\r\nHeight                                   : 404 pixels\r\nDisplay aspect ratio                     : 16:9\r\nFrame rate mode                          : Constant\r\nFrame rate                               : 29.970 fps\r\nColor space                              : YUV\r\nChroma subsampling                       : 4:2:0\r\nBit depth                                : 8 bits\r\nScan type                                : Progressive\r\nBits/(Pixel*Frame)                       : 0.137\r\nStream size                              : 954 MiB (90%)\r\n\r\nAudio\r\nID                                       : 2\r\nFormat                                   : AAC\r\nFormat/Info                              : Advanced Audio Codec\r\nFormat profile                           : LC\r\nCodec ID                                 : 40\r\nDuration                                 : 1h 51mn\r\nBit rate mode                            : Constant\r\nBit rate                                 : 128 Kbps\r\nChannel(s)                               : 2 channels\r\nChannel positions                        : Front: L R\r\nSampling rate                            : 44.1 KHz\r\nCompression mode                         : Lossy\r\nStream size                              : 102 MiB (10%)","torrent":{"xt":"urn:btih:b10b987cb8e2a002e3d783c29db753af016ad002","amp;dn":"Pan%282015%29MPEG-4%28720p%29%5BDaScubaDude%5D","amp;tr":["udp%3A%2F%2Ftracker.leechers-paradise.org%3A6969","udp%3A%2F%2Fzer0day.ch%3A1337","udp%3A%2F%2Fopen.demonii.com%3A1337","udp%3A%2F%2Ftracker.coppersurfer.tk%3A6969","udp%3A%2F%2Fexodus.desync.com%3A6969"],"infoHash":"b10b987cb8e2a002e3d783c29db753af016ad002","infoHashBuffer":{"type":"Buffer","data":[177,11,152,124,184,226,160,2,227,215,131,194,157,183,83,175,1,106,208,2]},"announce":[],"urlList":[]}}